<svg version="1.2" xmlns="http://www.w3.org/2000/svg" viewBox="0 0 48 50" width="48" height="50">
	<title>New Project</title>
	<defs>
		<filter x="-50%" y="-50%" width="200%" height="200%" id="f1" ><feDropShadow dx="3.4999999999999982" dy="6.062177826491071" stdDeviation="2.916666666666667" flood-color="#000000" flood-opacity="0"/></filter>
	</defs>
	<style>
		.s0 { filter: url(#f1);fill: #ffffff } 
		.s1 { fill: #070707 } 
	</style>
	<path id="Shape 4" class="s0" d="m23.5 36c-7.5 0-13.5-6-13.5-13.5c0-7.5 6-13.5 13.5-13.5c7.5 0 13.5 6 13.5 13.5c0 7.5-6 13.5-13.5 13.5z" />
	<g id="Folder 2">
		<path id="Shape 5" class="s1" d="m23.5 18c-0.8 0-1.5-0.7-1.5-1.5c0-0.8 0.7-1.5 1.5-1.5c0.8 0 1.5 0.7 1.5 1.5c0 0.8-0.7 1.5-1.5 1.5z" />
		<path id="Shape 5 copy" class="s1" d="m23.5 24.3c-0.8-0.1-1.5-0.7-1.5-1.6c0-0.8 0.7-1.5 1.5-1.5c0.8 0.1 1.5 0.7 1.5 1.6c0 0.8-0.7 1.4-1.5 1.4z" />
		<path id="Shape 5 copy 2" class="s1" d="m23.5 29.8c-0.8-0.1-1.5-0.7-1.5-1.6c0-0.8 0.7-1.5 1.5-1.5c0.8 0 1.5 0.7 1.5 1.5c0 0.9-0.7 1.6-1.5 1.5z" />
	</g>
</svg>