<svg version="1.2" xmlns="http://www.w3.org/2000/svg" viewBox="0 0 48 50" width="48" height="50">
	<title>New Project</title>
	<style>
		.s0 { fill: #070707 } 
	</style>
	<g id="Folder 2">
		<path id="Shape 5" class="s0" d="m23 19c-1.1 0-2-0.9-2-2c0-1.1 0.9-2 2-2c1.1 0 2 0.9 2 2c0 1.1-0.9 2-2 2z" />
		<path id="Shape 5 copy" class="s0" d="m23 27.3c-1.1 0-2-0.9-2-2c0-1.1 0.9-2 2-2c1.1 0 2 0.9 2 2c0 1.1-0.9 2-2 2z" />
		<path id="Shape 5 copy 2" class="s0" d="m23 34.7c-1.1 0-2-0.9-2-2c0-1.1 0.9-2 2-2c1.1 0 2 0.9 2 2c0 1.1-0.9 2-2 2z" />
	</g>
</svg>