<svg version="1.2" xmlns="http://www.w3.org/2000/svg" viewBox="0 0 139 55" width="139" height="55">
	<title>New Project3</title>
	<style>
		tspan { white-space:pre } 
		.s0 { fill: #363789 } 
		.s1 { fill: #119283 } 
	</style>
	<g id="Folder 1 copy 3">
		<path id="ilyrics" class="s0" d="m8.9 3.1q0.2 2 0.2 3.3q0 0.8-0.1 1.7q0 0.8-0.1 1.8q-1.2 0.2-2.3 0.3q-1.1 0.1-2.3 0.1q-1 0-2.1-0.1q-1.1-0.1-2.2-0.3q-0.1-1-0.2-1.8q0-0.8 0-1.6q0-0.7 0-1.6q0.1-0.8 0.2-1.8q1.1-0.3 2.2-0.3q1.2-0.2 2.3-0.2q1.1 0 2.1 0.2q1.2 0 2.3 0.3zm0 10.1v27.3h-9v-27.3zm13.1-10.4v37.7h-8.9v-37.7zm7.8 48.1v-0.1l4.3-10.2l-10.8-27.3v-0.1h10q1.5 4.4 2.9 8.9q1.4 4.5 2.2 9.2h0.1q0.9-4.6 2.2-9.1q1.3-4.5 3-9h9.6v0.2l-14.4 37.5zm34-20.3l-0.1 9.9h-9v-27.3h7.3l0.7 5.6h0.2q0.5-3.1 2.4-4.5q1.9-1.4 5.6-1.4q1.6 0 2.8 0.2q1.2 0.1 2.1 0.2v8.8l-0.2 0.1q-0.9-0.2-2-0.4q-1.1-0.2-2.6-0.2q-2.1 0-3.8 0.7q-1.6 0.7-2.5 2.6q-0.9 1.9-0.9 5.7zm22.3-27.5q0.1 2 0.1 3.3q0 0.8 0 1.7q0 0.8-0.1 1.8q-1.2 0.2-2.3 0.3q-1.2 0.1-2.3 0.1q-1 0-2.2-0.1q-1-0.1-2.1-0.3q-0.2-1-0.2-1.8q-0.1-0.8-0.1-1.6q0-0.7 0.1-1.6q0-0.8 0.2-1.8q1.1-0.3 2.2-0.3q1.2-0.2 2.3-0.2q1.1 0 2.1 0.2q1.1 0 2.3 0.3zm0 10.1v27.3h-9v-27.3zm25.1 19.2l0.3 0.2v7.3q-1.4 0.5-4.2 0.8q-2.7 0.3-5.8 0.3q-4.4 0-7.4-1.2q-2.9-1.3-4.4-4.3q-1.4-3-1.4-8.4q0-5.5 1.5-8.6q1.6-3.1 4.5-4.3q3-1.3 7.1-1.3q2.5 0 5.3 0.4q2.7 0.3 4.4 0.9l0.1 7.5l-0.2 0.1q-1.7-0.3-3.6-0.5q-1.9-0.2-3.7-0.2q-3.8 0-5.2 1.4q-1.5 1.4-1.5 4.7q0 2.5 0.6 3.8q0.7 1.2 2.1 1.6q1.5 0.4 4 0.4q1.9 0 3.7-0.2q1.8-0.1 3.8-0.4zm1.8 0.5l0.2-0.1q4.4 1.2 9.7 1.2q2.6 0 3.9-0.2q1.2-0.1 1.7-0.5q0.4-0.4 0.4-1.1q0-0.9-0.7-1.2q-0.7-0.2-2.7-0.6l-4.5-0.8q-4.2-0.9-6.1-2.7q-1.9-1.8-1.9-5.4q0-5 2.9-6.8q3-1.8 9.5-1.8q3.8 0 6.7 0.5q3 0.4 5 1l-0.2 6.8l-0.1 0.1q-4.6-1.4-9.9-1.4q-2.7 0-3.7 0.4q-1 0.3-1 1.4q0 0.5 0.2 0.9q0.4 0.3 1.5 0.6q1.1 0.3 3.5 0.8l4.1 0.8q3.4 0.7 5.1 2.4q1.6 1.6 1.6 5.3q0 3.2-1.2 5.1q-1.2 1.8-4 2.6q-2.7 0.8-7.6 0.8q-3.7 0-6.8-0.3q-3.1-0.4-5.6-0.9z" />
		<path id="Islamic Lyrics" fill-rule="evenodd" class="s1" d="m0.8 75v-14h2.1v14zm8.8 0.2q-1.1 0-2.3-0.4q-1.1-0.4-1.6-0.9l1-1.8q0.4 0.4 1.3 0.8q0.8 0.3 1.6 0.3q1 0 1.6-0.4q0.7-0.5 0.7-1.4q0-0.6-0.4-1.1q-0.3-0.4-0.8-0.8q-0.5-0.3-1.4-0.7q-1.1-0.6-1.5-0.8q-1.8-1.3-1.8-3.5q0-1.8 1.2-2.7q1.2-1 3-1q1.9 0 3.3 1.1l-1 1.8q-0.4-0.4-1-0.7q-0.7-0.3-1.4-0.3q-1 0-1.5 0.5q-0.5 0.4-0.5 1.2q0 0.6 0.3 1.1q0.3 0.5 0.9 0.8q0.5 0.3 1.4 0.8q0.8 0.5 1.3 0.8q0.5 0.3 0.9 0.6q0.5 0.5 0.8 1.2q0.4 0.7 0.4 1.5q0 1.3-0.6 2.2q-0.6 0.9-1.6 1.3q-1 0.5-2.3 0.5zm7-0.2v-14h2.1v12.1h4.1v1.9zm13.3-14h0.2l6.7 14h-2.4l-1.2-2.7h-6.4l-1.2 2.7h-2.4zm0.1 4l-0.8 1.9l-1.6 3.4h4.8l-1.5-3.3l-0.9-2zm15.2 10l-3.3-6.5l-0.9-2l-0.4 2l-1.3 6.5h-2.1l2.9-14h0.2l3.9 7.6l1.1 2.5l1.1-2.5l3.8-7.6h0.2l3 14h-2.1l-1.4-6.5l-0.4-2l-0.8 2l-3.4 6.5zm10.6 0v-14h2.1v14zm11.9 0.1q-2.2 0-3.7-1q-1.6-0.9-2.5-2.5q-0.8-1.7-0.8-3.6q0-2.1 0.9-3.7q0.9-1.7 2.5-2.6q1.7-0.9 3.7-0.9q1 0 1.8 0.2q0.8 0.2 1.3 0.5q0.6 0.2 0.7 0.4l-0.9 1.9q-1.2-1.1-3-1.1q-1.3 0-2.4 0.7q-1.1 0.6-1.7 1.8q-0.6 1.2-0.6 2.8q0 1.5 0.6 2.6q0.5 1.2 1.6 1.9q1 0.7 2.4 0.7q1.7 0 3.3-1l0.6 1.8q-0.4 0.4-1.5 0.8q-1.1 0.3-2.3 0.3zm11.1-0.1v-14h2.2v12.1h4v1.9zm11.5 0v-6.5l-4.9-7.5h2.6l3.3 5.5l3.4-5.5h2.5l-4.8 7.5v6.5zm17.8 0h-2.5l-2.8-5.3q-0.9 0-1.5 0h-0.6v5.3h-2v-14h3.1q2.4 0 4 1q1.6 1 1.6 3.3q0 1.4-0.7 2.4q-0.7 1-2 1.5zm-7.3-6.9h1.3q1.9 0 2.6-0.8q0.7-0.8 0.7-2q0-2.5-3.3-2.5h-1.3zm10 7v-13.9h2.1v13.9zm11.9 0.2q-2.1 0-3.7-1q-1.6-1-2.4-2.6q-0.9-1.6-0.9-3.6q0-2.1 0.9-3.7q0.9-1.6 2.6-2.5q1.6-1 3.7-1q0.9 0 1.7 0.2q0.8 0.2 1.3 0.5q0.6 0.2 0.7 0.4l-0.9 1.9q-1.1-1-3-1q-1.3 0-2.4 0.6q-1 0.7-1.7 1.9q-0.6 1.2-0.6 2.7q0 1.5 0.6 2.7q0.5 1.1 1.6 1.8q1 0.7 2.5 0.7q1.6 0 3.2-0.9l0.6 1.8q-0.4 0.4-1.5 0.7q-1.1 0.4-2.3 0.4zm9.5 0q-1.2 0-2.3-0.4q-1.1-0.4-1.6-0.9l1-1.8q0.4 0.4 1.2 0.8q0.9 0.4 1.7 0.4q1 0 1.6-0.5q0.6-0.5 0.6-1.3q0-0.7-0.3-1.2q-0.3-0.4-0.8-0.7q-0.5-0.4-1.4-0.8q-1.1-0.5-1.5-0.8q-1.9-1.2-1.9-3.4q0-1.8 1.2-2.8q1.2-1 3-1q2 0 3.4 1.2l-1 1.7q-0.4-0.4-1.1-0.6q-0.6-0.3-1.4-0.3q-0.9 0-1.5 0.4q-0.5 0.4-0.5 1.3q0 0.5 0.4 1q0.3 0.5 0.8 0.8q0.5 0.4 1.4 0.9q0.9 0.4 1.3 0.7q0.5 0.3 0.9 0.7q0.6 0.5 0.9 1.1q0.3 0.7 0.3 1.5q0 1.3-0.5 2.2q-0.6 0.9-1.6 1.4q-1.1 0.4-2.3 0.4z" />
	</g>
</svg>