<svg xmlns="http://www.w3.org/2000/svg" width="56" height="56" viewBox="0 0 56 56">
    <g fill="none" fill-rule="nonzero">
        <path fill="#6A453B" d="M28 0C12.537 0 0 12.503 0 27.925c0 15.421 12.537 27.924 28 27.924s28-12.503 28-27.924C56 12.503 43.463 0 28 0z"/>
        <path fill="#FFF" d="M44.722 36.323c0 4.673-3.8 8.475-8.474 8.475H19.602c-4.673 0-8.475-3.802-8.475-8.475V19.677c0-4.673 3.802-8.475 8.475-8.475h16.646c4.673 0 8.474 3.802 8.474 8.475v16.646z"/>
        <path fill="#6A453B" d="M36.248 14.859a4.824 4.824 0 0 1 4.819 4.818v16.646a4.825 4.825 0 0 1-4.82 4.819H19.603a4.825 4.825 0 0 1-4.819-4.82V19.678a4.824 4.824 0 0 1 4.819-4.818zm-8.323 4.489c-4.77 0-8.652 3.881-8.652 8.652 0 4.771 3.881 8.653 8.652 8.653 4.77 0 8.652-3.882 8.652-8.653 0-4.77-3.881-8.652-8.652-8.652zm0 3.656A5.002 5.002 0 0 1 32.92 28a5.002 5.002 0 0 1-4.996 4.997A5.003 5.003 0 0 1 22.928 28a5.002 5.002 0 0 1 4.997-4.995zm8.93-5.961a2.05 2.05 0 0 0-2.047 2.047 2.05 2.05 0 0 0 2.047 2.047 2.05 2.05 0 0 0 2.048-2.047 2.05 2.05 0 0 0-2.048-2.047z"/>
    </g>
</svg>
