<svg xmlns="http://www.w3.org/2000/svg" width="33" height="32" viewBox="0 0 33 32">
    <g fill="none" fill-rule="nonzero">
        <ellipse cx="16.291" cy="15.685" fill="#55ACEE" rx="16.291" ry="15.685"/>
        <path fill="#FFF" d="M26.083 10.708c-.693.298-1.439.5-2.22.59a3.782 3.782 0 0 0 1.7-2.074 7.888 7.888 0 0 1-2.456.91 3.92 3.92 0 0 0-2.822-1.184c-2.135 0-3.867 1.679-3.867 3.75 0 .293.035.579.101.854a11.092 11.092 0 0 1-7.97-3.918 3.647 3.647 0 0 0-.523 1.885c0 1.3.683 2.448 1.72 3.12a3.93 3.93 0 0 1-1.751-.469v.048c0 1.816 1.333 3.331 3.101 3.675a3.966 3.966 0 0 1-1.746.065c.492 1.49 1.92 2.573 3.612 2.604a7.913 7.913 0 0 1-4.802 1.605c-.312 0-.62-.018-.922-.053a11.186 11.186 0 0 0 5.926 1.685c7.112 0 11-5.713 11-10.668 0-.162-.003-.324-.01-.485a7.713 7.713 0 0 0 1.929-1.94z"/>
    </g>
</svg>
